<?xml version="1.0" encoding="utf-8"?>
<!-- Generator: Adobe Illustrator 18.1.1, SVG Export Plug-In . SVG Version: 6.00 Build 0)  -->
<!DOCTYPE svg PUBLIC "-//W3C//DTD SVG 1.1//EN" "http://www.w3.org/Graphics/SVG/1.1/DTD/svg11.dtd">
<svg version="1.1" id="Capa_1" xmlns="http://www.w3.org/2000/svg" xmlns:xlink="http://www.w3.org/1999/xlink" x="0px" y="0px"
	 viewBox="0 0 506 74" enable-background="new 0 0 506 74" xml:space="preserve">
<g id="Capa_1_2_">
	<g id="Capa_1_1_">
		<path fill="#929395" d="M162.5,17.2h-1.1v-4.3l-1.7,4.3h-0.8l-1.7-4.3v4.3H156v-6.9h1.1l2.2,5.1l2.2-5.1h1.1L162.5,17.2
			L162.5,17.2z M168.4,12.6v4.6h-1.1v-0.6c-0.3,0.4-0.9,0.8-1.4,0.8c-1.4,0-2.4-1.1-2.4-2.4s0.9-2.4,2.4-2.4c0.5,0,1.1,0.3,1.4,0.8
			v-0.7C167.3,12.6,168.4,12.6,168.4,12.6z M167.3,14.9c0-0.8-0.5-1.5-1.3-1.5s-1.3,0.7-1.3,1.5s0.5,1.5,1.3,1.5
			C166.8,16.3,167.3,15.7,167.3,14.9 M173.2,16.5c-0.3,0.4-0.9,0.8-1.4,0.8c-1.4,0-2.4-1.1-2.4-2.4s0.9-2.4,2.4-2.4
			c0.5,0,1.1,0.3,1.4,0.8v-2.9h1.1v6.9h-1.1C173.2,17.2,173.2,16.5,173.2,16.5z M173.2,14.9c0-0.8-0.5-1.5-1.3-1.5s-1.3,0.7-1.3,1.5
			s0.5,1.5,1.3,1.5C172.6,16.3,173.2,15.7,173.2,14.9 M176.3,15.2c0,0.7,0.3,1.2,1.2,1.2c0.6,0,0.8-0.3,1-0.6h1.1
			c-0.1,0.8-0.9,1.5-2,1.5c-1.6,0-2.3-1.1-2.3-2.4c0-1.4,0.8-2.4,2.3-2.4c1.2,0,2.1,0.9,2.1,2c0,0.2,0,0.4,0,0.7H176.3L176.3,15.2z
			 M176.3,14.4h2.3c0-0.7-0.4-1.1-1.1-1.1C176.9,13.3,176.3,13.7,176.3,14.4 M186.1,13.7l-1.2,3.4h-0.7l-1.8-4.6h1.2l1,2.9l1-2.9
			h1.1l1,2.9l1-2.9h1.2l-1.8,4.6h-0.7L186.1,13.7z M191,10.1c0.4,0,0.8,0.4,0.8,0.8c0,0.4-0.4,0.8-0.8,0.8c-0.4,0-0.8-0.4-0.8-0.8
			S190.6,10.1,191,10.1 M190.5,12.6h1.1v4.6h-1.1V12.6L190.5,12.6z M195.5,17.2c-0.2,0-0.5,0-0.8,0c-0.5,0-1.5-0.1-1.5-1.6v-2.1
			h-0.8v-0.9h0.8v-1.4h1.1v1.4h1.1v0.9h-1.1v1.9c0,0.8,0.3,0.9,0.7,0.9c0.2,0,0.4,0,0.5,0V17.2L195.5,17.2z M196.3,10.3h1.1v2.9
			c0.3-0.5,0.8-0.8,1.5-0.8s1.1,0.2,1.4,0.6c0.2,0.4,0.3,0.7,0.3,1.3V17h-1.1v-2.4c0-0.8-0.2-1.4-1-1.4s-1.1,0.6-1.1,1.4V17h-1.1
			L196.3,10.3L196.3,10.3z M159.3,26.1c0,0.9-0.8,1.4-1.8,1.4s-1.9-0.6-1.9-1.6h1c0,0.6,0.4,0.8,0.9,0.8c0.4,0,0.8-0.1,0.8-0.5
			s-0.4-0.4-1.4-0.8c-0.6-0.3-1.1-0.5-1.1-1.3s0.8-1.3,1.7-1.3c1,0,1.7,0.7,1.7,1.6h-1c0-0.4-0.2-0.7-0.8-0.7
			c-0.4,0-0.7,0.2-0.7,0.5c0,0.4,0.4,0.4,1.2,0.8C158.7,25.1,159.3,25.3,159.3,26.1 M160,25.1c0-1.3,0.9-2.4,2.4-2.4
			s2.4,1.1,2.4,2.4s-0.9,2.4-2.4,2.4C161,27.5,160,26.4,160,25.1 M163.8,25.1c0-0.8-0.5-1.5-1.3-1.5s-1.3,0.7-1.3,1.5
			s0.5,1.5,1.3,1.5C163.2,26.6,163.8,25.9,163.8,25.1 M171.7,27.4v-2.5c0-0.7-0.3-1.2-0.8-1.2s-1,0.3-1,1.4v2.3h-1.1v-2.6
			c0-0.7-0.2-1.2-0.8-1.2c-0.5,0-1,0.3-1,1.4v2.3h-1.1v-4.6h1.1v0.6c0.2-0.4,0.7-0.8,1.3-0.8c0.8,0,1.2,0.4,1.4,0.8
			c0.2-0.4,0.8-0.8,1.4-0.8c1.4,0,1.6,0.9,1.6,1.8v2.9L171.7,27.4L171.7,27.4L171.7,27.4z M174.8,25.5c0,0.7,0.3,1.2,1.2,1.2
			c0.6,0,0.8-0.3,1-0.6h1.1c-0.1,0.8-0.9,1.5-2,1.5c-1.6,0-2.3-1.1-2.3-2.4c0-1.4,0.8-2.4,2.3-2.4c1.2,0,2.1,0.9,2.1,2
			c0,0.2,0,0.4,0,0.7L174.8,25.5L174.8,25.5z M174.8,24.7h2.3c0-0.7-0.4-1.1-1.1-1.1S174.8,23.9,174.8,24.7 M184.3,21.5
			c-0.1,0-0.3-0.1-0.5-0.1c-0.3,0-0.7,0-0.7,0.7v0.7h1.2v0.9h-1.2v3.7H182v-3.7h-0.9v-0.9h0.9v-0.6c0-1.7,1.1-1.8,1.6-1.8
			c0.3,0,0.5,0,0.6,0.1L184.3,21.5L184.3,21.5z M188,23.8c-0.2,0-0.3,0-0.4,0c-0.9,0-1.4,0.5-1.4,1.6v2h-1.1v-4.6h1.1v0.7
			c0.2-0.4,0.8-0.8,1.4-0.8c0.2,0,0.3,0,0.4,0.1C188,22.8,188,23.8,188,23.8z M189.2,20.4c0.4,0,0.8,0.4,0.8,0.8s-0.4,0.8-0.8,0.8
			c-0.4,0-0.8-0.4-0.8-0.8S188.8,20.4,189.2,20.4 M188.7,22.8h1.1v4.6h-1.1V22.8z M191.9,25.5c0,0.7,0.3,1.2,1.2,1.2
			c0.6,0,0.8-0.3,1-0.6h1.1c-0.1,0.8-0.9,1.5-2,1.5c-1.6,0-2.3-1.1-2.3-2.4c0-1.4,0.8-2.4,2.3-2.4c1.2,0,2.1,0.9,2.1,2
			c0,0.2,0,0.4,0,0.7L191.9,25.5L191.9,25.5z M191.9,24.7h2.3c0-0.7-0.4-1.1-1.1-1.1C192.4,23.5,191.9,23.9,191.9,24.7 M196.3,22.8
			h1.1v0.6c0.3-0.5,0.8-0.8,1.5-0.8s1.1,0.2,1.4,0.6c0.2,0.4,0.3,0.7,0.3,1.3v2.7h-1.1V25c0-0.8-0.2-1.4-1-1.4s-1.1,0.6-1.1,1.4v2.4
			h-1.1L196.3,22.8L196.3,22.8z M205.2,26.8c-0.3,0.4-0.9,0.8-1.4,0.8c-1.4,0-2.4-1.1-2.4-2.4s0.9-2.4,2.4-2.4
			c0.5,0,1.1,0.3,1.4,0.8v-2.9h1.1v6.9h-1.1V26.8z M205.2,25.1c0-0.8-0.5-1.5-1.3-1.5s-1.3,0.7-1.3,1.5s0.5,1.5,1.3,1.5
			S205.2,25.9,205.2,25.1 M211,26.1c0,0.9-0.8,1.4-1.8,1.4s-1.9-0.6-1.9-1.6h1c0,0.6,0.4,0.8,0.9,0.8c0.4,0,0.8-0.1,0.8-0.5
			s-0.4-0.4-1.4-0.8c-0.6-0.3-1.1-0.5-1.1-1.3s0.8-1.3,1.7-1.3c1,0,1.7,0.7,1.7,1.6h-1c0-0.4-0.2-0.7-0.8-0.7
			c-0.4,0-0.7,0.2-0.7,0.5c0,0.4,0.4,0.4,1.2,0.8C210.4,25.1,211,25.3,211,26.1 M217.2,21.5c-0.1,0-0.3-0.1-0.5-0.1
			c-0.3,0-0.7,0-0.7,0.7v0.7h1.2v0.9H216v3.7h-1.1v-3.7H214v-0.9h0.9v-0.6c0-1.7,1.1-1.8,1.6-1.8c0.3,0,0.5,0,0.6,0.1L217.2,21.5
			L217.2,21.5z M220.9,23.8c-0.2,0-0.3,0-0.4,0c-0.9,0-1.4,0.5-1.4,1.6v2H218v-4.6h1.1v0.7c0.2-0.4,0.8-0.8,1.4-0.8
			c0.2,0,0.3,0,0.4,0.1C220.9,22.8,220.9,23.8,220.9,23.8z M221,25.1c0-1.3,0.9-2.4,2.4-2.4s2.4,1.1,2.4,2.4s-0.9,2.4-2.4,2.4
			C222,27.5,221,26.4,221,25.1 M224.8,25.1c0-0.8-0.5-1.5-1.3-1.5s-1.3,0.7-1.3,1.5s0.5,1.5,1.3,1.5
			C224.2,26.6,224.8,25.9,224.8,25.1 M232.7,27.4v-2.5c0-0.7-0.3-1.2-0.8-1.2s-1,0.3-1,1.4v2.3h-1.1v-2.6c0-0.7-0.2-1.2-0.8-1.2
			c-0.5,0-1,0.3-1,1.4v2.3h-1.1v-4.6h1.1v0.6c0.2-0.4,0.7-0.8,1.3-0.8c0.8,0,1.2,0.4,1.4,0.8c0.2-0.4,0.8-0.8,1.4-0.8
			c1.4,0,1.6,0.9,1.6,1.8v2.9L232.7,27.4L232.7,27.4L232.7,27.4z M186.1,52.8c0,3.4-2.7,6-6,6s-6-2.5-6-6s2.7-6,6-6
			C183.4,46.8,186.1,49.3,186.1,52.8 M183.5,52.8c0-2.1-1.6-3.6-3.4-3.6s-3.4,1.5-3.4,3.6s1.6,3.6,3.4,3.6S183.5,54.9,183.5,52.8
			 M199.1,52.8c0,3.4-2.7,6-6,6s-6-2.5-6-6s2.7-6,6-6S199.1,49.3,199.1,52.8 M196.5,52.8c0-2.1-1.6-3.6-3.4-3.6s-3.4,1.5-3.4,3.6
			s1.6,3.6,3.4,3.6S196.5,54.9,196.5,52.8 M211.6,47.2v10.7c0,4.4-2.6,6.2-5.7,6.2c-2.9,0-4.6-2-5.3-3.5l2.3-0.9
			c0.4,1,1.4,2.1,3,2.1c2,0,3.2-1.2,3.2-3.5v-0.8H209c-0.6,0.7-1.7,1.3-3.2,1.3c-3,0-5.7-2.6-5.7-6s2.7-6,5.7-6
			c1.4,0,2.5,0.6,3.2,1.3h0.1v-1L211.6,47.2L211.6,47.2L211.6,47.2z M209.3,52.8c0-2.1-1.4-3.7-3.2-3.7s-3.3,1.6-3.3,3.7
			c0,2.1,1.5,3.6,3.3,3.6S209.3,54.9,209.3,52.8 M213.4,40.9h2.6v17.5h-2.6V40.9z M226,54.8l2,1.3c-0.7,1-2.2,2.6-5,2.6
			c-3.4,0-5.8-2.6-5.8-6c0-3.6,2.5-6,5.6-6s4.6,2.4,5.1,3.8l0.3,0.7l-8,3.3c0.6,1.2,1.6,1.8,2.9,1.8C224.4,56.4,225.3,55.7,226,54.8
			 M219.7,52.6l5.3-2.2c-0.3-0.8-1.2-1.2-2.2-1.2C221.5,49.1,219.7,50.3,219.7,52.6 M164.7,58.8c-5.1,0-9.4-4.1-9.4-9.3
			s4.3-9.3,9.4-9.3c2.8,0,4.9,1.1,6.4,2.5l-1.8,1.8c-1.1-1-2.5-1.8-4.6-1.8c-3.7,0-6.6,3-6.6,6.7s2.9,6.7,6.6,6.7
			c2.4,0,3.8-1,4.7-1.9c0.7-0.7,1.2-1.8,1.4-3.2h-6.1v-2.5h8.5c0.1,0.4,0.1,1,0.1,1.6c0,1.9-0.5,4.2-2.2,5.9
			C169.5,57.9,167.4,58.8,164.7,58.8 M21.9,39.5l-0.6-1.7h-5.2l-0.6,1.7h-2.4L18,25.8h1.6l4.8,13.7H21.9L21.9,39.5z M18.8,29.5
			l-1.9,6.2h3.8L18.8,29.5z M27.2,36.5c0.9,0,1.6,0.7,1.6,1.6c0,0.8-0.7,1.6-1.6,1.6c-0.8,0-1.6-0.7-1.6-1.6S26.3,36.5,27.2,36.5
			 M30.9,25.8h2.3v13.7h-2.3L30.9,25.8L30.9,25.8z M36.9,36.5c0.9,0,1.6,0.7,1.6,1.6c0,0.8-0.7,1.6-1.6,1.6c-0.8,0-1.6-0.7-1.6-1.6
			C35.3,37.2,36,36.5,36.9,36.5 M16.9,46.4v3.9h5.7v2h-5.7V56h5.7v2h-7.9V44.3h7.9v2C22.6,46.4,16.9,46.4,16.9,46.4z M32.4,58.1H30
			l-1.8-2.9l-1.7,2.9H24l3-4.6l-3-4.6h2.5l1.6,2.9l1.7-2.9h2.5l-2.9,4.5L32.4,58.1L32.4,58.1z M35.8,50.2c0.6-0.9,1.8-1.5,2.8-1.5
			c2.8,0,4.7,2.2,4.7,4.8s-1.9,4.8-4.7,4.8c-1.1,0-2.3-0.5-2.8-1.5v5.8h-2.1V48.9h2.1V50.2z M35.8,53.5c0,1.6,1.1,2.9,2.7,2.9
			c1.6,0,2.7-1.3,2.7-2.9c0-1.6-1.1-2.9-2.7-2.9C36.9,50.6,35.8,51.9,35.8,53.5 M46.4,54.2c0.1,1.3,0.7,2.4,2.4,2.4
			c1.2,0,1.7-0.5,2-1.2h2.1c-0.3,1.6-1.8,3-4.1,3c-3.1,0-4.6-2.1-4.6-4.8c0-2.8,1.6-4.8,4.5-4.8c2.4,0,4.2,1.8,4.2,4.1
			c0,0.3,0,0.8-0.1,1.3H46.4L46.4,54.2L46.4,54.2z M46.4,52.6h4.5c0-1.4-0.9-2.3-2.2-2.3S46.4,51.1,46.4,52.6 M60.5,50.9
			c-0.3-0.1-0.5-0.1-0.8-0.1c-1.8,0-2.8,1-2.8,3.3V58h-2.1v-9.1h2.1v1.5c0.4-0.8,1.6-1.6,2.8-1.6c0.3,0,0.6,0,0.8,0.1V50.9
			L60.5,50.9z M63.1,44c0.9,0,1.6,0.7,1.6,1.6c0,0.8-0.7,1.6-1.6,1.6c-0.8,0-1.6-0.7-1.6-1.6S62.2,44,63.1,44 M62.1,48.9h2.1V58
			h-2.1V48.9z M77.7,58.1V53c0-1.5-0.5-2.4-1.7-2.4c-1.1,0-1.9,0.7-1.9,2.8V58H72v-5.2c0-1.5-0.5-2.4-1.6-2.4s-2,0.7-2,2.8V58h-2.1
			v-9.1h2.1v1.3c0.4-0.8,1.3-1.5,2.5-1.5c1.6,0,2.5,0.7,2.9,1.6c0.4-0.9,1.5-1.6,2.8-1.6c2.8,0,3.3,1.9,3.3,3.6v5.8H77.7L77.7,58.1z
			 M83.3,54.2c0.1,1.3,0.7,2.4,2.4,2.4c1.2,0,1.7-0.5,2-1.2h2.1c-0.3,1.6-1.8,3-4.1,3c-3.1,0-4.6-2.1-4.6-4.8c0-2.8,1.6-4.8,4.5-4.8
			c2.4,0,4.2,1.8,4.2,4.1c0,0.3,0,0.8-0.1,1.3H83.3L83.3,54.2L83.3,54.2z M83.3,52.6h4.5c0-1.4-0.9-2.3-2.2-2.3S83.3,51.1,83.3,52.6
			 M91.6,48.9h2.1v1.3c0.6-1,1.6-1.5,3-1.5c1.3,0,2.2,0.5,2.8,1.2c0.4,0.7,0.6,1.5,0.6,2.7V58h-2.2v-4.8c0-1.6-0.4-2.8-2-2.8
			c-1.5,0-2.2,1.2-2.2,2.8V58h-2.1L91.6,48.9L91.6,48.9z M107.2,58.1c-0.3,0-1,0.1-1.6,0.1c-1,0-2.9-0.1-2.9-3.2v-4.2h-1.6V49h1.6
			v-2.8h2.1V49h2.1v1.8h-2.1v3.7c0,1.6,0.5,1.8,1.3,1.8c0.3,0,0.8,0,1.1-0.1V58.1L107.2,58.1z M15,11.3h-1.7v-1h4.5v1h-1.7v5.9H15
			V11.3z M18.6,10.3h1.1v2.9c0.3-0.5,0.8-0.8,1.5-0.8s1.1,0.2,1.4,0.6c0.2,0.4,0.3,0.7,0.3,1.3V17h-1.1v-2.4c0-0.8-0.2-1.4-1-1.4
			s-1.1,0.6-1.1,1.4V17h-1.1L18.6,10.3L18.6,10.3z M24.7,10.1c0.4,0,0.8,0.4,0.8,0.8c0,0.4-0.4,0.8-0.8,0.8s-0.8-0.4-0.8-0.8
			C23.9,10.5,24.2,10.1,24.7,10.1 M24.1,12.6h1.1v4.6h-1.1V12.6z M29.9,15.9c0,0.9-0.8,1.4-1.8,1.4s-1.9-0.6-1.9-1.6h1
			c0,0.6,0.4,0.8,0.9,0.8c0.4,0,0.8-0.1,0.8-0.5s-0.4-0.4-1.4-0.8c-0.6-0.3-1.1-0.5-1.1-1.3s0.8-1.3,1.7-1.3c1,0,1.7,0.7,1.7,1.6h-1
			c0-0.4-0.2-0.7-0.8-0.7c-0.4,0-0.7,0.2-0.7,0.5c0,0.4,0.4,0.4,1.2,0.8C29.3,14.8,29.9,15,29.9,15.9 M33.9,10.1
			c0.4,0,0.8,0.4,0.8,0.8c0,0.4-0.4,0.8-0.8,0.8c-0.4,0-0.8-0.4-0.8-0.8C33.1,10.5,33.5,10.1,33.9,10.1 M33.3,12.6h1.1v4.6h-1.1
			V12.6z M39.1,15.9c0,0.9-0.8,1.4-1.8,1.4s-1.9-0.6-1.9-1.6h1c0,0.6,0.4,0.8,0.9,0.8c0.4,0,0.8-0.1,0.8-0.5s-0.4-0.4-1.4-0.8
			c-0.6-0.3-1.1-0.5-1.1-1.3s0.8-1.3,1.7-1.3c1,0,1.7,0.7,1.7,1.6h-1c0-0.4-0.2-0.7-0.8-0.7c-0.4,0-0.7,0.2-0.7,0.5
			c0,0.4,0.4,0.4,1.2,0.8C38.5,14.8,39.1,15,39.1,15.9 M47.1,12.6v4.6H46v-0.6c-0.3,0.4-0.9,0.8-1.4,0.8c-1.4,0-2.4-1.1-2.4-2.4
			s0.9-2.4,2.4-2.4c0.5,0,1.1,0.3,1.4,0.8v-0.7C46,12.6,47.1,12.6,47.1,12.6z M46,14.9c0-0.8-0.5-1.5-1.3-1.5s-1.3,0.7-1.3,1.5
			s0.5,1.5,1.3,1.5S46,15.7,46,14.9 M48.5,12.6h1.1v0.6c0.3-0.5,0.8-0.8,1.5-0.8s1.1,0.2,1.4,0.6c0.2,0.4,0.3,0.7,0.3,1.3V17h-1.1
			v-2.4c0-0.8-0.2-1.4-1-1.4s-1.1,0.6-1.1,1.4V17h-1.1C48.5,17.1,48.5,12.6,48.5,12.6z M130.1,9.9h0.4V59h-0.4V9.9L130.1,9.9z"/>
		<rect x="251.1" y="9.9" fill="#929395" width="0.4" height="49.1"/>
		<g>
			<g>
				<path fill="#929395" d="M294.6,38.1h8.5c2.3,0,4.1,0.7,5.2,1.8c0.8,0.9,1.3,1.9,1.3,3.2v0.1c0,2.6-1.6,3.9-3.2,4.6
					c2.4,0.7,4.3,2.1,4.3,4.8v0.1c0,3.4-2.9,5.5-7.3,5.5h-8.9V38.1H294.6z M307.4,43.4c0-2-1.6-3.3-4.4-3.3h-6.1V47h5.9
					C305.5,47,307.4,45.8,307.4,43.4L307.4,43.4z M303.2,49h-6.3v7.1h6.7c3,0,4.9-1.3,4.9-3.6v-0.1C308.5,50.3,306.7,49,303.2,49z"
					/>
				<path fill="#929395" d="M313,50.8L313,50.8c0-4.3,3-7.7,7.1-7.7c4.4,0,6.9,3.5,6.9,7.8c0,0.3,0,0.5,0,0.7h-11.7
					c0.3,3.2,2.6,5,5.2,5c2,0,3.5-0.8,4.7-2.1l1.4,1.2c-1.5,1.7-3.3,2.8-6.1,2.8C316.3,58.4,313,55.3,313,50.8z M324.7,49.9
					c-0.2-2.7-1.8-5-4.7-5c-2.6,0-4.5,2.1-4.8,5H324.7z"/>
				<path fill="#929395" d="M328.6,56.2l1.1-1.6c1.6,1.2,3.4,1.9,5.1,1.9c1.8,0,3.1-0.9,3.1-2.3v-0.1c0-1.5-1.7-2.1-3.7-2.6
					c-2.3-0.7-4.9-1.5-4.9-4.2v-0.1c0-2.5,2.1-4.2,5-4.2c1.8,0,3.8,0.6,5.3,1.6l-1,1.7c-1.4-0.9-2.9-1.4-4.4-1.4
					c-1.7,0-2.9,0.9-2.9,2.1v0.1c0,1.4,1.8,1.9,3.8,2.5c2.3,0.7,4.7,1.6,4.7,4.2V54c0,2.8-2.3,4.4-5.3,4.4
					C332.6,58.4,330.2,57.6,328.6,56.2z"/>
				<path fill="#929395" d="M343.5,54.2v-8.9h-2.1v-1.9h2.1v-4.5h2.2v4.5h4.7v1.9h-4.7v8.6c0,1.8,1,2.5,2.5,2.5
					c0.7,0,1.4-0.1,2.1-0.5v1.9c-0.8,0.4-1.6,0.6-2.7,0.6C345.3,58.4,343.5,57.2,343.5,54.2z"/>
			</g>
			<g>
				<polygon fill="#929395" points="281.3,57.6 290.4,57.6 281.3,41.2 				"/>
			</g>
			<g>
				<polygon fill="#929395" points="291.8,38.1 282.7,38.1 291.8,54.6 				"/>
			</g>
			<rect x="275.5" y="42.7" fill="#929395" width="3" height="15"/>
			<rect x="275.5" y="38.1" fill="#929395" width="3" height="2.3"/>
		</g>
	</g>
	<g id="Capa_2">
	</g>
	<g enable-background="new    ">
		<path fill="#929395" d="M291.6,17.2v-5.8l-2.2,5.8h-0.6l-2.2-5.8v5.8h-0.9v-6.9h1.5l1.9,5.3l1.9-5.3h1.5v6.9H291.6z"/>
		<path fill="#929395" d="M298.3,15.1h-3.9c0.2,0.8,0.8,1.4,1.6,1.4c0.6,0,1.1-0.3,1.3-0.9h0.9c-0.4,1.1-1.2,1.8-2.3,1.8
			c-1.4,0-2.4-1.3-2.4-2.7c0-1.5,1.1-2.7,2.4-2.7s2.4,1.2,2.4,2.7C298.3,14.7,298.3,14.9,298.3,15.1z M295.9,12.8
			c-0.4,0-0.9,0.2-1.2,0.6c-0.3,0.3-0.3,0.6-0.4,1h3.1C297.4,13.5,296.7,12.8,295.9,12.8z"/>
		<path fill="#929395" d="M302,17.2l-1.2-1.8l-1.1,1.8h-1l1.6-2.6l-1.6-2.5h1.1l1,1.7l1-1.7h1.1l-1.5,2.5l1.7,2.6H302z"/>
		<path fill="#929395" d="M303.6,11.5v-1.1h0.9v1.1H303.6z M303.6,17.2V12h0.9v5.2H303.6z"/>
		<path fill="#929395" d="M307.8,17.4c-1.4,0-2.4-1.2-2.4-2.7s1-2.7,2.4-2.7c1,0,2.1,0.7,2.3,1.9h-1c-0.3-0.6-0.7-1-1.3-1
			c-0.9,0-1.6,0.8-1.6,1.8c0,0.9,0.6,1.8,1.5,1.8c0.6,0,1.1-0.4,1.4-1h1C309.8,16.6,308.9,17.4,307.8,17.4z"/>
		<path fill="#929395" d="M314.9,17.2v-0.8c-0.2,0.3-0.3,0.4-0.5,0.6c-0.4,0.3-0.8,0.4-1.3,0.4c-1.4,0-2.4-1.2-2.4-2.7
			s1-2.7,2.5-2.7c0.6,0,1.4,0.3,1.7,0.9v-0.7h0.8v5.2h-0.8L314.9,17.2L314.9,17.2z M313.2,12.8c-0.9,0-1.6,0.9-1.6,1.8
			c0,1,0.7,1.8,1.6,1.8s1.6-0.8,1.6-1.8C314.8,13.7,314.1,12.8,313.2,12.8z"/>
		<path fill="#929395" d="M320.2,17.2v-2.8c0-0.3,0-0.8-0.2-1.1c-0.2-0.4-0.6-0.5-1-0.5c-0.9,0-1.2,0.8-1.2,1.6v2.8h-0.9V12h0.8v0.5
			c0.3-0.5,0.9-0.7,1.4-0.7c1.2,0,2,0.8,2,2.1v3.2L320.2,17.2L320.2,17.2z"/>
		<path fill="#929395" d="M322.1,11.5v-1.1h0.9v1.1H322.1z M322.1,17.2V12h0.9v5.2H322.1z"/>
		<path fill="#929395" d="M323.8,17.2v-0.7l2.3-3.5h-2v-0.9h3v1l-2.1,3.3h2.3v0.9L323.8,17.2L323.8,17.2z"/>
		<path fill="#929395" d="M331.8,17.2v-0.8c-0.2,0.3-0.3,0.4-0.5,0.6c-0.4,0.3-0.8,0.4-1.3,0.4c-1.4,0-2.4-1.2-2.4-2.7
			s1-2.7,2.5-2.7c0.6,0,1.4,0.3,1.7,0.9v-0.7h0.8v5.2h-0.8L331.8,17.2L331.8,17.2z M330.1,12.8c-0.9,0-1.6,0.9-1.6,1.8
			c0,1,0.7,1.8,1.6,1.8s1.6-0.8,1.6-1.8C331.8,13.7,331.1,12.8,330.1,12.8z"/>
		<path fill="#929395" d="M337.7,17.2v-0.7c-0.4,0.6-1,0.9-1.7,0.9c-1.4,0-2.4-1.2-2.4-2.7c0-1.4,1-2.7,2.4-2.7
			c0.6,0,1.3,0.3,1.7,0.8v-2.4h0.9v6.9L337.7,17.2L337.7,17.2z M336,12.8c-0.9,0-1.6,0.8-1.6,1.8s0.7,1.8,1.6,1.8
			c1,0,1.7-0.9,1.7-1.9C337.7,13.6,336.9,12.8,336,12.8z"/>
		<path fill="#929395" d="M341.9,17.4c-1.4,0-2.6-1.2-2.6-2.7s1.2-2.7,2.6-2.7s2.6,1.2,2.6,2.7S343.3,17.4,341.9,17.4z M341.9,12.8
			c-0.9,0-1.7,0.8-1.7,1.8s0.7,1.8,1.7,1.8c0.9,0,1.7-0.8,1.7-1.8S342.9,12.8,341.9,12.8z"/>
		<path fill="#929395" d="M350.3,17.4c-0.6,0-1.3-0.3-1.7-0.9V19h-0.9v-6.9h0.8v0.8c0.4-0.6,1-0.9,1.7-0.9c1.4,0,2.4,1.3,2.4,2.8
			C352.7,16.2,351.7,17.4,350.3,17.4z M350.2,12.8c-0.9,0-1.6,0.9-1.6,1.8c0,1,0.7,1.8,1.6,1.8s1.6-0.8,1.6-1.8
			C351.8,13.7,351.1,12.8,350.2,12.8z"/>
		<path fill="#929395" d="M355.9,17.4c-1.4,0-2.6-1.2-2.6-2.7s1.2-2.7,2.6-2.7s2.6,1.2,2.6,2.7C358.4,16.2,357.3,17.4,355.9,17.4z
			 M355.9,12.8c-0.9,0-1.7,0.8-1.7,1.8s0.7,1.8,1.7,1.8c0.9,0,1.7-0.8,1.7-1.8C357.5,13.6,356.8,12.8,355.9,12.8z"/>
		<path fill="#929395" d="M360.2,14.4v2.8h-0.9V12h0.8v0.5c0.3-0.4,0.7-0.6,1.2-0.6v1C360.5,13,360.2,13.5,360.2,14.4z"/>
	</g>
</g>
<g id="Capa_2_1_">
	<g>
		<path fill="#FEFEFE" d="M273.4,11c0-0.8,0-1.6,0-2.4c3.4,0,6.8,0,10.2,0c0.2,0,0.2,0,0.2,0.2c0,3.3,0,6.6,0,9.9
			c0,0.2,0,0.2-0.2,0.2c-3.3,0-6.6,0-9.9,0c-0.2,0-0.3,0-0.2-0.2c0-0.7,0-1.4,0-2.2c0,0,0.1,0,0.1,0c0.3,0.4,0.8,0.4,1.2,0.4
			c0.7,0,1.4,0,2.2,0c1.1,0,2.3,0,3.4,0c0.8,0,1.6,0,2.4,0c0.7,0,0.9-0.2,0.9-0.9c0-1.6,0-3.1,0-4.7c0-0.7-0.2-0.9-0.9-0.9
			c-0.8,0-1.6,0-2.4,0c-1.1,0-2.3,0-3.4,0c-0.8,0-1.5,0-2.3,0c-0.4,0-0.8,0-1,0.5C273.5,11,273.5,11,273.4,11z"/>
		<path fill="#71B000" d="M276.8,17.1c-0.8,0-1.6,0-2.4,0c-0.5,0-0.9-0.1-1.1-0.6c0-1.9,0-3.7,0-5.6c0.2-0.5,0.5-0.6,1-0.6
			c0.8,0,1.6,0,2.5,0c0.1,0.1,0.1,0.3,0.1,0.5c0,1.9,0,3.9,0,5.8C277,16.8,277,17,276.8,17.1z"/>
		<path fill="#FE4950" d="M280.3,10.4c0.9,0,1.7,0,2.6,0c0.5,0,0.8,0.3,0.8,0.8c0,1.7,0,3.5,0,5.2c0,0.5-0.3,0.8-0.8,0.8
			c-0.9,0-1.7,0-2.6,0c-0.1-0.1-0.1-0.3-0.1-0.5c0-1.9,0-3.9,0-5.8C280.2,10.7,280.2,10.5,280.3,10.4z"/>
		<path fill="#F4F4F4" d="M280.3,10.4c0,2.2,0,4.5,0,6.7c-1.2,0-2.3,0-3.5,0c0-2.2,0-4.5,0-6.7C278,10.4,279.1,10.4,280.3,10.4z"/>
		<path fill="#7B3E47" d="M278.4,12.8c0.1,0,0.2,0.1,0.3,0.2c0.1,0.1,0.2,0.2,0.2,0.3c0,0.1,0.1,0.2,0.1,0.3c0,0.1,0,0.2,0,0.3
			c-0.1,0.1-0.2,0-0.3,0c-0.1-0.1-0.2,0-0.4-0.1c0-0.1,0-0.1,0-0.2c0-0.1,0-0.2,0-0.3c0-0.1,0-0.3,0-0.4
			C278.3,13,278.3,12.9,278.4,12.8z"/>
		<path fill="#9D515F" d="M278.9,12.7c0.4,0.1,0.7,0.6,0.6,1.1c0,0.1-0.1,0.1-0.2,0.1c0,0-0.1,0-0.1-0.1c-0.1-0.1-0.1-0.2-0.1-0.3
			C279.2,13.2,279,13,278.9,12.7z"/>
		<path fill="#8A4352" d="M278.9,12.7c0.2,0.2,0.3,0.5,0.3,0.8c-0.2,0.1-0.3-0.1-0.4-0.1c0-0.1-0.1-0.2-0.1-0.4
			c0.2,0,0.1-0.1,0.1-0.2C278.6,12.5,278.8,12.6,278.9,12.7z"/>
		<path fill="#AED56A" d="M278.3,13.7c0,0,0,0.1,0,0.1c0,0.1-0.1,0.1-0.2,0.2c-0.1,0-0.2-0.1-0.3-0.2c0-0.1-0.2-0.3-0.1-0.5
			c0.2,0.1,0.2,0.3,0.4,0.4c-0.2-0.2,0-0.4,0-0.6c0,0,0-0.1,0-0.1c0,0,0.1,0,0.1,0c0.1,0,0.1,0.1,0.1,0.2
			C278.2,13.4,278.2,13.6,278.3,13.7z"/>
		<path fill="#11C7A5" d="M277.7,13.9c0.1,0,0.2,0.1,0.4,0.1c0.1,0,0.3,0,0.4,0c0.2,0,0.3,0,0.4-0.1c0.1,0,0.2-0.1,0.3,0
			c0,0.2-0.3,0.2-0.4,0.3c-0.1,0.1-0.2,0.1-0.3,0.2c0,0-0.1,0-0.1,0c-0.1,0-0.2-0.1-0.3-0.2C278,14.1,277.8,14.1,277.7,13.9z"/>
		<path fill="#B5D873" d="M278.2,14.7c0.1,0,0.2,0,0.3,0c0.1,0,0.2,0,0.3,0c0.1,0,0.2,0,0.3,0c0.1,0,0.1,0.1,0.1,0.1
			c-0.3,0.2-0.7,0.2-1,0C278.1,14.7,278.1,14.7,278.2,14.7z"/>
		<path fill="#73353D" d="M279.3,13.9c-0.1,0-0.2,0.1-0.3,0.1c0,0-0.1,0-0.1-0.1c0-0.1-0.1-0.2,0-0.3c0.2-0.1,0.3,0.1,0.4,0.1
			C279.3,13.8,279.3,13.8,279.3,13.9C279.3,13.9,279.3,13.9,279.3,13.9z"/>
		<path fill="#FEB475" d="M278.5,14.3c0,0,0.1,0,0.1,0c0.1,0,0.1,0,0.2,0.1c0,0,0,0.1,0,0.1c0,0-0.1,0.1-0.1,0.1
			c-0.1,0.1-0.2,0.1-0.3,0c0,0-0.1-0.1-0.1-0.1c0,0,0-0.1,0-0.1C278.4,14.4,278.4,14.3,278.5,14.3z"/>
		<path fill="#B5D876" d="M277.3,13.9C277.3,13.9,277.3,13.9,277.3,13.9c-0.1-0.2-0.1-0.3,0-0.3c0.1,0,0.1,0.1,0.1,0.2
			c0,0,0,0.1,0,0.1C277.4,14,277.4,14,277.3,13.9z"/>
		<path fill="#B8DA7C" d="M279.7,13.9C279.7,13.9,279.7,13.9,279.7,13.9c0-0.1,0-0.4,0.1-0.3c0.1,0,0,0.2,0,0.3
			C279.8,14,279.7,14,279.7,13.9z"/>
		<path fill="#AFD66B" d="M278.1,13.1C278.1,13.1,278.1,13.2,278.1,13.1c-0.1,0.1-0.1,0-0.2,0c-0.1-0.1-0.1-0.2,0-0.2
			C278.1,12.8,278,13,278.1,13.1C278.1,13,278.1,13.1,278.1,13.1C278.1,13.1,278.1,13.1,278.1,13.1z"/>
		<path fill="#F1CC4F" d="M278.1,13.1C278.1,13.1,278.1,13.1,278.1,13.1c0.1-0.2,0.1-0.3,0.3-0.3c0,0.1,0,0.1,0,0.2
			c0,0.1-0.1,0.1-0.1,0.1C278.2,13.1,278.1,13.1,278.1,13.1z"/>
		<path fill="#22B2DC" d="M278.8,14.6c0,0,0-0.1,0-0.1c0-0.1,0.1-0.1,0.2-0.1C279.1,14.5,279.1,14.5,278.8,14.6z"/>
		<path fill="#22B2DC" d="M278.4,14.4c0,0,0,0.1,0,0.1c-0.3-0.1-0.3-0.1-0.2-0.3C278.2,14.3,278.3,14.3,278.4,14.4z"/>
		<path fill="#B5D667" d="M279.1,14.6c0.1-0.1,0.2-0.1,0.3-0.2c0.1,0,0.1,0,0.1,0.1c-0.1,0.1-0.2,0.2-0.3,0.2
			C279.1,14.7,279.1,14.7,279.1,14.6z"/>
		<path fill="#B1D567" d="M277.8,14.4c0.1,0.1,0.1,0.1,0.2,0.2c0,0.1,0,0.1,0,0.1C277.8,14.7,277.7,14.6,277.8,14.4
			C277.7,14.5,277.7,14.4,277.8,14.4z"/>
		<path fill="#D7E8E9" d="M279,14.3c-0.1,0-0.1,0.1-0.2,0.1c0,0-0.1,0-0.1-0.1C278.7,14.2,278.8,14.2,279,14.3
			C278.9,14.3,279,14.3,279,14.3z"/>
		<path fill="#D8E9E9" d="M278.4,14.4c-0.1,0-0.1-0.1-0.2-0.1c0,0,0,0,0.1-0.1c0.1,0,0.2,0,0.3,0.1
			C278.5,14.4,278.4,14.4,278.4,14.4z"/>
		<path fill="#F5E25F" d="M277.8,14.4C277.7,14.4,277.7,14.5,277.8,14.4c-0.2,0.1-0.2,0-0.2,0c0-0.1,0-0.1,0.1-0.1
			C277.7,14.3,277.7,14.3,277.8,14.4z"/>
		<path fill="#B6D76B" d="M279.7,14.2c0,0.1-0.1,0.1-0.1,0.2c-0.1,0-0.1,0-0.1-0.1c0-0.1,0.1-0.1,0.1-0.2
			C279.7,14.1,279.7,14.1,279.7,14.2z"/>
		<path fill="#B6D76B" d="M277.6,14.3C277.6,14.3,277.6,14.3,277.6,14.3c-0.1,0-0.2,0-0.2-0.1c0-0.1,0.1-0.1,0.1-0.1
			C277.6,14.1,277.6,14.2,277.6,14.3z"/>
		<path fill="#F5E15D" d="M279.7,14.2c0,0-0.1,0-0.1-0.1c0,0,0-0.1,0.1-0.1c0,0,0.1,0,0.1,0C279.8,14,279.8,14.1,279.7,14.2z"/>
		<path fill="#F5E15C" d="M277.5,14.1c0,0-0.1,0-0.1,0.1c-0.1,0-0.1-0.1-0.1-0.2c0,0,0.1,0,0.1,0C277.5,14,277.5,14,277.5,14.1z"/>
		<path fill="#F3E15B" d="M277.9,14.7c0,0,0-0.1,0-0.1c0.1,0,0.1,0,0.2,0.1c0,0-0.1,0.1-0.1,0.1C278,14.8,278,14.8,277.9,14.7z"/>
		<path fill="#FAD8BC" d="M278.4,14.6c0.1,0,0.2,0,0.3,0c0,0,0,0,0,0.1C278.6,14.8,278.5,14.8,278.4,14.6
			C278.4,14.7,278.4,14.7,278.4,14.6z"/>
		<path fill="#F6E055" d="M279.5,14.3C279.5,14.3,279.6,14.3,279.5,14.3c0.1,0.2,0,0.2,0,0.2c0,0-0.1-0.1-0.1-0.1
			C279.4,14.4,279.5,14.3,279.5,14.3z"/>
		<path fill="#F6E15A" d="M279.1,14.6c0,0,0.1,0.1,0.1,0.1c0,0.1-0.1,0.1-0.1,0.1c0,0,0-0.1-0.1-0.1C279,14.6,279.1,14.6,279.1,14.6
			z"/>
		<path fill="#E8E6E6" d="M279.3,13.8c-0.2,0.1-0.3-0.1-0.4-0.1c0-0.1-0.1-0.2-0.1-0.3c0.2,0,0.3,0.1,0.4,0.1
			C279.2,13.6,279.3,13.7,279.3,13.8z"/>
		<path fill="#EBEEE8" d="M278.6,14.1c-0.2,0-0.3,0-0.5-0.1c0.1-0.1,0.2,0,0.2-0.1c0.1,0,0.3-0.1,0.4,0
			C278.8,14,278.7,14.1,278.6,14.1z"/>
		<path fill="#E3E1D9" d="M278.3,13.7c-0.1-0.1-0.4-0.2,0-0.4c0.1,0,0,0.1,0.1,0.1C278.4,13.6,278.4,13.6,278.3,13.7z"/>
		<path fill="#C6CD87" d="M278.6,14.1c0-0.1,0.1-0.1,0.1-0.2c0.1,0,0.1,0.1,0.2,0c0,0,0,0.1,0.1,0.1
			C278.9,14.1,278.7,14.2,278.6,14.1z"/>
		<path fill="#DED5D2" d="M278.4,13.5c0,0,0-0.1-0.1-0.1c0-0.1,0-0.2-0.1-0.2c0-0.1,0.1-0.1,0.1-0.1
			C278.5,13.2,278.3,13.3,278.4,13.5z"/>
	</g>
</g>
</svg>
